<svg xmlns="http://www.w3.org/2000/svg" viewBox="0 0 64 64" role="img" aria-label="AI Process Knowledge Base">
  <rect width="64" height="64" rx="14" fill="#111827"/>
  <path d="M18 18h17c6.1 0 11 4.9 11 11v17H29c-6.1 0-11-4.9-11-11V18Z" fill="#1f2937"/>
  <path d="M23 23h11c4.4 0 8 3.6 8 8v11H31c-4.4 0-8-3.6-8-8V23Z" fill="#22c55e"/>
  <path d="M28 28h8v8h-8z" fill="#f8fafc"/>
  <path d="M42 20l8-6m-4 21 8 3M20 45l-6 7" stroke="#60a5fa" stroke-width="4" stroke-linecap="round"/>
  <circle cx="51" cy="13" r="5" fill="#f59e0b"/>
  <circle cx="55" cy="39" r="5" fill="#60a5fa"/>
  <circle cx="12" cy="54" r="5" fill="#ef4444"/>
</svg>
